<svg width="32" height="32" viewBox="0 0 32 32" xmlns="http://www.w3.org/2000/svg">
  <defs>
    <linearGradient id="bookGrad" x1="0%" y1="0%" x2="100%" y2="100%">
      <stop offset="0%" style="stop-color:#4f46e5;stop-opacity:1" />
      <stop offset="50%" style="stop-color:#7c3aed;stop-opacity:1" />
      <stop offset="100%" style="stop-color:#db2777;stop-opacity:1" />
    </linearGradient>
    
    <radialGradient id="glow" cx="50%" cy="50%" r="50%">
      <stop offset="0%" style="stop-color:#fbbf24;stop-opacity:0.8" />
      <stop offset="100%" style="stop-color:#f59e0b;stop-opacity:0.2" />
    </radialGradient>
  </defs>
  
  <!-- Background -->
  <circle cx="16" cy="16" r="15" fill="url(#glow)" opacity="0.4"/>
  
  <!-- Open book -->
  <g transform="translate(16,20)">
    <!-- Left page -->
    <path d="M-8,-4 Q-9,-7 -6,-8 L-1,-7 Q0,-6 0,-4 L0,3 Q-1,4 -6,3 Q-9,2 -8,0 Z" 
          fill="#fef3c7" stroke="#d1d5db" stroke-width="0.5"/>
    <!-- Right page -->
    <path d="M8,-4 Q9,-7 6,-8 L1,-7 Q0,-6 0,-4 L0,3 Q1,4 6,3 Q9,2 8,0 Z" 
          fill="#fef3c7" stroke="#d1d5db" stroke-width="0.5"/>
  </g>
  
  <!-- Central magic orb -->
  <circle cx="16" cy="10" r="4" fill="url(#bookGrad)" opacity="0.9"/>
  <circle cx="16" cy="10" r="2" fill="#fbbf24" opacity="0.8"/>
  
  <!-- Flowing elements -->
  <path d="M12,18 Q8,15 10,10" stroke="#06d6a0" stroke-width="1.5" fill="none" opacity="0.6"/>
  <path d="M20,18 Q24,15 22,10" stroke="#118ab2" stroke-width="1.5" fill="none" opacity="0.6"/>
  
  <!-- Small sparkles -->
  <circle cx="6" cy="8" r="1" fill="#fbbf24" opacity="0.7">
    <animate attributeName="opacity" values="0.3;1;0.3" dur="2s" repeatCount="indefinite"/>
  </circle>
  <circle cx="26" cy="8" r="1" fill="#f59e0b" opacity="0.7">
    <animate attributeName="opacity" values="0.5;1;0.5" dur="1.8s" repeatCount="indefinite"/>
  </circle>
  <circle cx="6" cy="24" r="0.8" fill="#7c3aed" opacity="0.6">
    <animate attributeName="opacity" values="0.4;0.9;0.4" dur="2.2s" repeatCount="indefinite"/>
  </circle>
  <circle cx="26" cy="24" r="0.8" fill="#db2777" opacity="0.6">
    <animate attributeName="opacity" values="0.3;0.8;0.3" dur="1.9s" repeatCount="indefinite"/>
  </circle>
</svg>